<mxfile host="Electron" modified="2024-08-28T06:41:59.658Z" agent="Mozilla/5.0 (Windows NT 10.0; Win64; x64) AppleWebKit/537.36 (KHTML, like Gecko) draw.io/24.2.5 Chrome/120.0.6099.109 Electron/28.1.0 Safari/537.36" etag="F5yJRRpS9GLJhcIqC4cI" version="24.2.5" type="device">
  <diagram name="第 1 页" id="U2cKLI5L8Aeoa39j2gfu">
    <mxGraphModel dx="2074" dy="1196" grid="1" gridSize="10" guides="1" tooltips="1" connect="1" arrows="1" fold="1" page="1" pageScale="1" pageWidth="827" pageHeight="1169" math="0" shadow="0">
      <root>
        <mxCell id="0" />
        <mxCell id="1" parent="0" />
        <mxCell id="IAOLG8ACU44_xAyuVIr2-1" value="" style="edgeStyle=orthogonalEdgeStyle;rounded=0;orthogonalLoop=1;jettySize=auto;html=1;" edge="1" parent="1" source="IAOLG8ACU44_xAyuVIr2-2" target="IAOLG8ACU44_xAyuVIr2-7">
          <mxGeometry relative="1" as="geometry">
            <mxPoint x="310" y="341" as="targetPoint" />
          </mxGeometry>
        </mxCell>
        <mxCell id="IAOLG8ACU44_xAyuVIr2-2" value="&lt;b&gt;Aggregate (Single Partitioned)&lt;/b&gt;" style="whiteSpace=wrap;html=1;rounded=0;fillColor=#dae8fc;strokeColor=#6c8ebf;" vertex="1" parent="1">
          <mxGeometry x="250" y="395" width="120" height="60" as="geometry" />
        </mxCell>
        <mxCell id="IAOLG8ACU44_xAyuVIr2-3" value="" style="edgeStyle=orthogonalEdgeStyle;rounded=0;orthogonalLoop=1;jettySize=auto;html=1;" edge="1" parent="1" source="IAOLG8ACU44_xAyuVIr2-4" target="IAOLG8ACU44_xAyuVIr2-2">
          <mxGeometry relative="1" as="geometry" />
        </mxCell>
        <mxCell id="IAOLG8ACU44_xAyuVIr2-4" value="" style="rounded=1;whiteSpace=wrap;html=1;fillColor=#d5e8d4;strokeColor=#82b366;" vertex="1" parent="1">
          <mxGeometry x="265" y="492" width="90" height="20" as="geometry" />
        </mxCell>
        <mxCell id="IAOLG8ACU44_xAyuVIr2-5" value="" style="rounded=1;whiteSpace=wrap;html=1;fillColor=#d5e8d4;strokeColor=#82b366;" vertex="1" parent="1">
          <mxGeometry x="265" y="522" width="90" height="20" as="geometry" />
        </mxCell>
        <mxCell id="IAOLG8ACU44_xAyuVIr2-6" value="Partition0" style="text;html=1;align=center;verticalAlign=middle;resizable=0;points=[];autosize=1;strokeColor=none;fillColor=none;" vertex="1" parent="1">
          <mxGeometry x="275" y="550" width="70" height="30" as="geometry" />
        </mxCell>
        <mxCell id="IAOLG8ACU44_xAyuVIr2-7" value="" style="rounded=1;whiteSpace=wrap;html=1;fillColor=#d5e8d4;strokeColor=#82b366;" vertex="1" parent="1">
          <mxGeometry x="265" y="330" width="90" height="20" as="geometry" />
        </mxCell>
        <mxCell id="IAOLG8ACU44_xAyuVIr2-8" value="Partition0" style="text;html=1;align=center;verticalAlign=middle;resizable=0;points=[];autosize=1;strokeColor=none;fillColor=none;" vertex="1" parent="1">
          <mxGeometry x="275" y="298" width="70" height="30" as="geometry" />
        </mxCell>
        <mxCell id="IAOLG8ACU44_xAyuVIr2-9" value="" style="edgeStyle=orthogonalEdgeStyle;rounded=0;orthogonalLoop=1;jettySize=auto;html=1;" edge="1" parent="1" source="IAOLG8ACU44_xAyuVIr2-10" target="IAOLG8ACU44_xAyuVIr2-15">
          <mxGeometry relative="1" as="geometry">
            <mxPoint x="440" y="341" as="targetPoint" />
          </mxGeometry>
        </mxCell>
        <mxCell id="IAOLG8ACU44_xAyuVIr2-10" value="&lt;b&gt;Aggregate (Single Partitioned)&lt;/b&gt;" style="whiteSpace=wrap;html=1;rounded=0;fillColor=#dae8fc;strokeColor=#6c8ebf;" vertex="1" parent="1">
          <mxGeometry x="380" y="395" width="120" height="60" as="geometry" />
        </mxCell>
        <mxCell id="IAOLG8ACU44_xAyuVIr2-11" value="" style="edgeStyle=orthogonalEdgeStyle;rounded=0;orthogonalLoop=1;jettySize=auto;html=1;" edge="1" parent="1" source="IAOLG8ACU44_xAyuVIr2-12" target="IAOLG8ACU44_xAyuVIr2-10">
          <mxGeometry relative="1" as="geometry" />
        </mxCell>
        <mxCell id="IAOLG8ACU44_xAyuVIr2-12" value="" style="rounded=1;whiteSpace=wrap;html=1;fillColor=#d5e8d4;strokeColor=#82b366;" vertex="1" parent="1">
          <mxGeometry x="395" y="492" width="90" height="20" as="geometry" />
        </mxCell>
        <mxCell id="IAOLG8ACU44_xAyuVIr2-13" value="" style="rounded=1;whiteSpace=wrap;html=1;fillColor=#d5e8d4;strokeColor=#82b366;" vertex="1" parent="1">
          <mxGeometry x="395" y="522" width="90" height="20" as="geometry" />
        </mxCell>
        <mxCell id="IAOLG8ACU44_xAyuVIr2-14" value="Partition1" style="text;html=1;align=center;verticalAlign=middle;resizable=0;points=[];autosize=1;strokeColor=none;fillColor=none;" vertex="1" parent="1">
          <mxGeometry x="405" y="550" width="70" height="30" as="geometry" />
        </mxCell>
        <mxCell id="IAOLG8ACU44_xAyuVIr2-15" value="" style="rounded=1;whiteSpace=wrap;html=1;fillColor=#d5e8d4;strokeColor=#82b366;" vertex="1" parent="1">
          <mxGeometry x="395" y="330" width="90" height="20" as="geometry" />
        </mxCell>
        <mxCell id="IAOLG8ACU44_xAyuVIr2-16" value="Partition1" style="text;html=1;align=center;verticalAlign=middle;resizable=0;points=[];autosize=1;strokeColor=none;fillColor=none;" vertex="1" parent="1">
          <mxGeometry x="405" y="298" width="70" height="30" as="geometry" />
        </mxCell>
        <mxCell id="IAOLG8ACU44_xAyuVIr2-17" value="" style="edgeStyle=orthogonalEdgeStyle;rounded=0;orthogonalLoop=1;jettySize=auto;html=1;" edge="1" parent="1" source="IAOLG8ACU44_xAyuVIr2-18" target="IAOLG8ACU44_xAyuVIr2-23">
          <mxGeometry relative="1" as="geometry">
            <mxPoint x="630" y="341" as="targetPoint" />
          </mxGeometry>
        </mxCell>
        <mxCell id="IAOLG8ACU44_xAyuVIr2-18" value="&lt;b&gt;Aggregate (Single Partitioned)&lt;/b&gt;" style="whiteSpace=wrap;html=1;rounded=0;fillColor=#dae8fc;strokeColor=#6c8ebf;" vertex="1" parent="1">
          <mxGeometry x="570" y="395" width="120" height="60" as="geometry" />
        </mxCell>
        <mxCell id="IAOLG8ACU44_xAyuVIr2-19" value="" style="edgeStyle=orthogonalEdgeStyle;rounded=0;orthogonalLoop=1;jettySize=auto;html=1;" edge="1" parent="1" source="IAOLG8ACU44_xAyuVIr2-20" target="IAOLG8ACU44_xAyuVIr2-18">
          <mxGeometry relative="1" as="geometry" />
        </mxCell>
        <mxCell id="IAOLG8ACU44_xAyuVIr2-20" value="" style="rounded=1;whiteSpace=wrap;html=1;fillColor=#d5e8d4;strokeColor=#82b366;" vertex="1" parent="1">
          <mxGeometry x="585" y="492" width="90" height="20" as="geometry" />
        </mxCell>
        <mxCell id="IAOLG8ACU44_xAyuVIr2-21" value="" style="rounded=1;whiteSpace=wrap;html=1;fillColor=#d5e8d4;strokeColor=#82b366;" vertex="1" parent="1">
          <mxGeometry x="585" y="522" width="90" height="20" as="geometry" />
        </mxCell>
        <mxCell id="IAOLG8ACU44_xAyuVIr2-22" value="PartitionN" style="text;html=1;align=center;verticalAlign=middle;resizable=0;points=[];autosize=1;strokeColor=none;fillColor=none;" vertex="1" parent="1">
          <mxGeometry x="590" y="550" width="80" height="30" as="geometry" />
        </mxCell>
        <mxCell id="IAOLG8ACU44_xAyuVIr2-23" value="" style="rounded=1;whiteSpace=wrap;html=1;fillColor=#d5e8d4;strokeColor=#82b366;" vertex="1" parent="1">
          <mxGeometry x="585" y="330" width="90" height="20" as="geometry" />
        </mxCell>
        <mxCell id="IAOLG8ACU44_xAyuVIr2-24" value="PartitionN" style="text;html=1;align=center;verticalAlign=middle;resizable=0;points=[];autosize=1;strokeColor=none;fillColor=none;" vertex="1" parent="1">
          <mxGeometry x="590" y="298" width="80" height="30" as="geometry" />
        </mxCell>
        <mxCell id="IAOLG8ACU44_xAyuVIr2-25" value="" style="shape=waypoint;sketch=0;size=6;pointerEvents=1;points=[];fillColor=none;resizable=0;rotatable=0;perimeter=centerPerimeter;snapToPoint=1;" vertex="1" parent="1">
          <mxGeometry x="515" y="420" width="20" height="20" as="geometry" />
        </mxCell>
        <mxCell id="IAOLG8ACU44_xAyuVIr2-26" value="" style="shape=waypoint;sketch=0;size=6;pointerEvents=1;points=[];fillColor=none;resizable=0;rotatable=0;perimeter=centerPerimeter;snapToPoint=1;" vertex="1" parent="1">
          <mxGeometry x="525" y="420" width="20" height="20" as="geometry" />
        </mxCell>
        <mxCell id="IAOLG8ACU44_xAyuVIr2-28" value="" style="shape=waypoint;sketch=0;size=6;pointerEvents=1;points=[];fillColor=none;resizable=0;rotatable=0;perimeter=centerPerimeter;snapToPoint=1;" vertex="1" parent="1">
          <mxGeometry x="535" y="420" width="20" height="20" as="geometry" />
        </mxCell>
      </root>
    </mxGraphModel>
  </diagram>
</mxfile>
